<?xml version="1.0" encoding="UTF-8"?>
<svg id="Layer_3" data-name="Layer 3" xmlns="http://www.w3.org/2000/svg" viewBox="0 0 1254 1254">
  <g>
    <path d="M736.88,538.98c-2.27-9.02-5.81-18.23-11.63-26.93-27.56-43.3-56.07-88.01-97.96-88.01-24.06,0-47.66,14.98-72.16,45.8-11.01,13.81-22.25,31.57-28.95,45.62-17.21-31.48-22.72-58.98-16.84-83.9.07-.28.12-.55.18-.83,3.6-19.45,9.99-42.01,18.49-65.25,4.66-12.66,8.55-21.87,13.41-31.74,15.89-32.64,17.96-71.44,5.58-103.89-1.46-4.06-3.32-7.97-5.12-11.74-2.02-4.25-6.19-12.99-5.44-15.6,1.1-2.15,5.43-6.29,10.95-8.67,1.28-.52,2.54-.77,3.87-.77,1.1,0,2.29.17,3.53.52,5.53,1.5,10.86,6.01,17.03,11.23,1.54,1.3,3.07,2.59,4.61,3.85,6.61,5.49,16.87,13.24,28.27,19.11,14.02,7.22,29,10.92,43.47,14.51,13.67,3.39,26.59,6.59,37.53,12.41,16.82,10.8,27.88,28.61,32.87,52.95,1.63,8.42,2.49,17.4,3.4,26.91.67,6.95,1.36,14.14,2.38,21.2,2.01,14.72,5.49,25.82,11.64,37.09.06.12.13.23.2.35,10.83,18.82,21.06,36.61,21.04,60.5-.83,28.51-7.34,55.97-20.33,85.3Z"/>
    <path d="M561.54,219.04c1.21,1.02,2.45,2.06,3.75,3.12,10.55,8.75,21.11,15.87,31.39,21.16,15.84,8.15,32.53,12.28,47.27,15.93,12.29,3.05,23.93,5.93,32.87,10.54,12.35,8.2,20.62,22.07,24.57,41.25,1.46,7.58,2.28,16.12,3.14,25.16.68,7.14,1.39,14.53,2.47,21.99,2.29,16.69,6.48,29.96,13.6,43.01.13.23.26.47.39.7,11.55,20.08,18.67,33.37,18.71,51.52-.41,13.46-2.22,26.7-5.52,40.1-11.27-17.56-23.75-36.18-37.33-51.06-22.07-24.18-44.83-35.93-69.59-35.94-29.72,0-57.8,17.13-85.82,52.38-4.35,5.45-8.73,11.49-12.9,17.71-.45-1.54-.87-3.07-1.24-4.58-3.29-13.28-3.6-25.21-.95-36.48.13-.55.25-1.11.35-1.67,3.42-18.5,9.54-40.07,17.7-62.39,4.44-12.07,8.12-20.78,12.69-30.05.02-.05.05-.1.07-.14,8.21-16.86,13.35-35.89,14.86-55.01,1.73-21.86-1.18-42.91-8.64-62.56-.58-1.61-1.21-3.18-1.85-4.7M551.24,175.55c-3.54,0-7.1.67-10.64,2.13-8.44,3.6-17.11,10.58-20.35,18.1-5.24,12.97,5.9,27.7,10.33,40.13,12.06,31.46,7.09,65.5-4.87,90.08-5.44,11.06-9.53,20.93-14.15,33.46-7.83,21.41-15.06,45.38-19.26,68.08-8.42,35.73,3.93,71.36,21.81,102.15,2.85,5.47,8.09,12.47,13.71,12.47,2.16,0,4.37-1.03,6.52-3.57,2.8-3.43,4.15-7.93,5.97-11.98,5.82-13.42,17.74-32.38,28.51-45.88,22.26-28,41.33-39.19,58.46-39.19,31.85,0,56.99,38.72,83.31,80.09,8.19,12.16,10.93,26.02,12.46,40.62.67,6,3.52,12.97,8.67,12.97,1.65,0,3.54-.72,5.67-2.42l.14-.11c3.11-2.61,5.69-6.78,7.71-10.56,18.6-36.7,28.42-71.08,29.46-108.17.09-28.27-11.42-48.72-23.38-69.5-5.48-10.05-8.08-19.48-9.67-31.15-2.33-15.99-2.86-33.2-5.95-49.1-5.55-27.13-18.52-50.36-41.18-64.64-25.32-13.75-56.74-14.46-81.84-27.37-8.84-4.55-17.61-10.8-25.16-17.07-8.7-7.09-17-15.41-28.1-18.43-2.71-.75-5.44-1.15-8.19-1.15h0Z"/>
  </g>
  <g>
    <path d="M501.65,613.9c-1.04-.78-2.07-1.55-3.09-2.31-12.63-9.76-28.75-19.75-44.35-29.42-13.25-8.22-25.77-15.98-32.86-21.65-5.75-4.68-9.76-9.47-15.29-16.09l-2.15-2.57c-5.65-6.86-12.07-15.25-17.19-22.45-.09-.13-.18-.25-.27-.37-28.3-37.63-38.98-73.96-36.86-125.39,0-.13,0-.26.01-.4l.06-3.43c.46-23.77.97-50.71-7.42-75.29-.03-.08-.06-.16-.08-.24-2.72-7.59-6.08-14.02-10.42-19.85.37,0,.71,0,1.02.02,5.96.19,12.39,1.32,17.64,3.09,6.37,2.13,12.27,5.97,17.11,11.12.99,1.08,1.95,2.19,2.92,3.29,5.2,5.94,11.67,13.32,21.37,18.01,10.25,5.19,20.43,6.09,29.42,6.89,3.57.32,6.95.62,9.95,1.17,3.76.76,7.13,1.94,10.27,3.63,5.81,3.34,9.92,7.31,11.31,10.95.2.7.29,2.1-.47,6.11-1.36,6.62-3.47,13.44-5.69,20.67-1.84,5.96-3.74,12.12-5.25,18.34-5.03,19.1-6.78,40.22-5.2,62.78,2.48,41.76,13.9,68.84,30.28,96.65,5.78,9.88,11.93,19.49,17.87,28.78,5.79,9.04,11.25,17.58,16.47,26.46.3.51.59,1.01.88,1.5Z"/>
    <path d="M364.44,331.29c5.02,5.05,11.32,10.33,19.62,14.37,13.21,6.64,26.15,7.79,35.63,8.64,3.09.27,6.01.53,8.2.92,1.9.39,3.57.97,5.08,1.75.59.35,1.12.68,1.57.99-1.2,5.05-2.89,10.52-4.66,16.26-1.9,6.16-3.87,12.53-5.5,19.22-5.47,20.88-7.39,43.82-5.7,68.19,2.4,40.24,12.42,67.82,27.05,94.54-5.49-3.54-10.23-6.76-13.38-9.28-4.42-3.6-7.6-7.41-12.86-13.7-.69-.83-1.4-1.67-2.13-2.54-5.31-6.46-11.58-14.64-16.38-21.39-.18-.25-.36-.5-.55-.75-13.26-17.64-21.89-34.29-27.16-52.4-5.23-17.99-7.2-37.61-6.21-61.76.01-.26.02-.53.02-.79l.06-3.41c.35-18.41.74-38.61-2.73-58.87M330.81,276.94c-10.69,0-33.65,1.58-24.57,14.79,2.49,3.57,6.02,6.58,8.85,9.92,4.93,5.67,8.09,11.55,10.59,18.54,7.76,22.74,6.86,48.43,6.42,72.74-2.22,54.15,8.96,94.86,40.36,136.63,5.58,7.84,12.36,16.65,17.99,23.49,7,8.33,11.98,14.65,19.91,21.09,16.47,13.21,54.65,33.63,77.58,51.37,5.88,4.44,11.68,8.69,18.08,12.5,4.7,2.81,9.89,5.61,14.76,6.32.82.15,1.6.22,2.34.22,6,0,9.24-4.6,8.15-10.43l-.03-.18c-.63-3.87-2.66-7.97-4.6-11.55-3.52-6.38-7.24-12.82-10.8-18.85-10.98-18.67-23.3-36.35-34.35-55.25-16.59-28.16-25.73-52.17-27.9-88.89-1.34-19.19-.15-39.01,4.71-57.37,3.14-13.02,8.4-26.47,11.15-39.9,1.12-5.85,1.44-10.49-.16-15.23-3.21-8.94-10.99-15.76-19.35-20.52-5.46-2.97-10.81-4.6-15.48-5.52-11.62-2.16-24.01-.99-34.91-6.56-8.08-3.86-13.34-11.09-19.21-17.51-6.68-7.13-15.08-12.71-24.35-15.81-6.98-2.36-15.18-3.77-22.77-4.01-.7-.02-1.52-.03-2.43-.03h0Z"/>
  </g>
  <g>
    <path d="M770.18,607.75c1.84-2.39,3.6-4.73,5.26-7.03l.12-.16c35.67-50.65,55.92-111.85,54.18-163.71,0-.13,0-.26-.02-.39-1.46-26.15-12.89-49.67-23.96-69.27-1.13-2.24-2.39-4.46-3.61-6.61-1.88-3.32-5.36-9.43-5.56-11.86.38-1.22,2.88-4.48,6.4-6.39.13-.07.25-.14.38-.21,4.88-2.79,11.82-3.84,19.16-4.94,14.28-2.15,33.81-5.09,46.72-24.13,1.09-1.51,2.01-2.89,2.82-4.12,2.66-4.02,2.9-4.21,4.65-5l.1-.04c5.66-2.6,12.53-4.15,21.4-4.81-.58,1.06-1.15,2.17-1.69,3.34-8.62,16.85-12.56,35.64-11.39,54.37.71,15.96,4.24,29.48,7.65,42.56.77,2.97,1.55,5.96,2.31,9,.04.15.07.29.11.44,8.56,31.2,11.3,55.91-1.47,82.66-.04.09-.08.17-.12.26-11.21,24.51-35.29,56.64-50.74,71.27-.17.16-.34.33-.51.5-8.46,8.69-17.43,13.66-32.29,21.89-3.57,1.98-7.61,4.22-11.92,6.67l-1.43.79c-8.46,4.66-17.68,9.74-26.56,14.94Z"/>
    <path d="M867.95,339.36c-.55,6.08-.64,12.21-.27,18.34.81,17.74,4.73,32.78,8.19,46.05.79,3.02,1.53,5.88,2.25,8.78.07.29.15.58.23.87,7.69,28.02,10.09,48.54-.39,70.49-.08.17-.17.35-.25.52-10.21,22.33-32.89,52.62-46.86,65.85-.34.33-.68.66-1.01,1-3.12,3.2-6.35,5.78-10.57,8.53,19.14-41.07,29.26-84.67,27.95-123.54,0-.26-.02-.52-.03-.77-1.65-29.58-14-55.27-26-76.56-.62-1.21-1.25-2.38-1.88-3.52,1.92-.34,3.97-.64,5.83-.93,11.23-1.69,27.92-4.21,42.8-15.11M907.45,281.23c-2.46,0-4.76.11-6.52.15-10.68.5-21.61,2.11-31.4,6.6-8.24,3.72-10.08,8.81-14.61,15.04-14.25,21.31-40.73,12.74-60.24,23.91-7.06,3.81-13.81,11.14-15.26,18.41-2.14,9.93,6.51,21.26,10.89,30.08,10.44,18.45,20.67,39.35,21.93,62.01,1.69,50.32-19.51,108.33-51,153.05-7.42,10.28-16.05,20.43-24.12,29.26-2.83,3.13-5.85,6.18-8.09,9.58-5.83,8.31-2.16,16.68,6.49,16.68,1.1,0,2.28-.14,3.53-.42l.19-.04c10.59-3.05,18.45-9.93,28.18-15.67,12.23-7.71,26.38-15.46,39.29-22.58,22.14-12.6,35.49-18.56,48.19-31.61,16.6-15.72,42.15-49.44,54.62-76.7,15.72-32.9,11.18-63.42,2.56-94.84-3.97-16.08-8.71-30.71-9.47-48.3-1.02-15.83,2.37-31.66,9.63-45.74,2.93-6.34,7.23-11.41,10.13-17.54,3.93-10.04-6.44-11.33-14.95-11.33h0Z"/>
  </g>
  <g>
    <path d="M660.87,617.89c-10.4-7-21.93-10.65-33.87-10.65-11.3,0-22.28,3.34-32.2,9.74-.3-.98-.59-1.94-.89-2.9-6.11-19.95-10.14-33.13-6.13-49.07.07-.26.13-.52.18-.79,2.79-13.75,12.12-30.34,27-47.96.1-.12.2-.24.29-.36,3.06-3.82,5.73-7.35,8.33-10.75l2.14-2.81c.7-.92,1.32-1.69,1.85-2.35,4.13,4.11,9.45,11.46,11.79,14.7,1.58,2.18,2.96,4.09,4.25,5.73,1.03,1.41,2.09,2.83,3.15,4.27,10.29,13.91,20.92,28.29,22.59,42.96.68,15.21-3.57,32.22-8.48,50.23Z"/>
    <path d="M642.12,509.92h0,0M627.65,528.36c.68.92,1.35,1.81,2.02,2.66.99,1.35,2,2.72,3.02,4.1,8.76,11.84,17.8,24.07,19.2,33.99.23,7.18-.94,15.29-2.82,24-7.19-2.21-14.61-3.35-22.07-3.35-7.18,0-14.24,1.02-21.07,3.02-2.5-9.75-3.04-16.12-1.19-23.48.13-.52.25-1.05.36-1.58,2.14-10.54,10.13-24.49,22.55-39.36M626.54,480.24c-1.26,0-2.49.26-3.7.82-4.09,1.9-8.01,6.71-11.04,10.66-3.24,4.24-6.47,8.56-10.22,13.26-14.03,16.63-26.83,36.32-30.77,55.77-5.62,22.34.7,39.68,7.99,63.78,1.45,4.45,3.48,10.4,6.61,13.39,1.39,1.39,2.92,1.94,4.5,1.94,2.97,0,6.1-1.95,8.67-3.9,8.81-7.56,18.64-11.21,28.43-11.21,10.97,0,21.89,4.59,31.27,13.41,2.4,1.97,5.19,3.82,7.91,3.82,1.48,0,2.94-.55,4.3-1.92l.11-.11c2.52-2.43,4.48-7.87,5.67-11.98,6.22-22.58,11.54-42.43,10.55-61.65-2.19-21.51-17.08-39.83-29.28-56.49-6.06-7.59-19.37-29.58-30.99-29.58h0Z"/>
  </g>
  <g>
    <path d="M258.26,923.94c-4.65-1.45-11.6-5.92-14.55-8.87-1.48-3.22-3.96-10.22-5.82-15.48-5.2-14.69-11.1-31.34-19.34-42.51-3.04-4.12-7.35-8.93-12.35-14.51-6.98-7.79-15.66-17.48-21.82-26.39-3.19-4.61-4.77-7.69-5.53-9.46.94-1.05,2.35-2.46,3.22-3.35,8.59-8.66,21.56-21.74,30.04-52.18,8.15-29.25,25.11-90.13,66.48-115.81,35.43-21.99,51.74-24.8,74.35-25.39-4.59,4.33-9.06,9.24-13.4,14.71-14.28,17.98-24.57,38.96-30.69,53.39-2.64,6.22-2,13.26,1.7,18.85,3.74,5.65,10.02,9.03,16.79,9.03,6.12,0,11.83-2.78,15.67-7.62,13.08-16.49,35.33-36.67,67.12-39.16,4.64-.36,9.18-.55,13.5-.55,10.66,0,20.36,1.12,29.08,3.36-20.22,8.42-54.82,30.55-69.19,85.83-7.09,27.28-6.63,45.36-6.29,58.57.32,12.46.44,17.12-4.89,26.54-13.28,23.49-22.87,27.98-36.15,34.19-2.02.95-5.58,2.11-9.35,3.34-18.6,6.08-49.51,16.18-68.58,53.47Z"/>
    <path d="M309.3,638.16c-7.12,12.13-12.64,23.87-16.55,33.1-4.93,11.64-3.73,24.85,3.22,35.34,6.99,10.56,18.73,16.86,31.38,16.86,11.5,0,22.21-5.19,29.38-14.24,9.22-11.63,23.77-25.46,43.44-30.66-13.6,15.14-26.1,36.06-33.59,64.87-7.71,29.66-7.21,49.17-6.85,63.43.3,11.81.2,12.46-2.63,17.47-5.08,8.99-9.82,15.24-14.5,19.12-3.57,2.96-7.2,4.72-13.84,7.83-1.14.52-4.74,1.7-7.38,2.56-9.47,3.09-23.78,7.77-38.23,17.06-10.73,6.9-20.05,15.38-27.89,25.34-.31-.87-.61-1.72-.88-2.5-5.61-15.84-11.97-33.8-21.76-47.07-3.53-4.78-8.1-9.88-13.39-15.79-5.87-6.55-13-14.51-18.4-21.79,9.01-9.91,20.41-25.47,28.14-53.21,7.56-27.12,23.28-83.56,58.85-105.64,7.92-4.92,15.01-8.92,21.48-12.09M365.58,592.3c-.37,0-.75,0-1.12,0l-1.94.02c-29.33.35-48.7.59-93.15,28.18-47.17,29.28-65.36,94.59-74.11,125.98-7.26,26.05-17.87,36.74-25.61,44.55-5.46,5.51-7.92,8.18-8.82,13.81-.31,1.96-.05,7.95,9.16,21.28,6.79,9.81,15.87,19.96,23.18,28.11,4.7,5.25,8.76,9.78,11.31,13.22,6.7,9.07,12.13,24.42,16.93,37.96,2.8,7.92,5.45,15.4,7.49,19.11,2.41,4.2,19.07,17.37,31.92,17.37,3.78,0,8.59-.97,12.29-8.51,15.73-32.1,41.87-40.64,59.17-46.29,4.48-1.46,8.35-2.73,11.34-4.13,14.37-6.72,27.94-13.07,43.97-41.43,7.71-13.64,7.49-22.37,7.15-35.59-.33-12.85-.74-28.83,5.74-53.73,15.31-58.9,55.96-73.99,68.05-77.21,4.46-1.19,9.18-1.79,14.03-1.79,6.41,0,11.95,1.04,15.81,2.04.22.06.45.09.67.09.44,0,.87-.11,1.26-.31,1.57-.82,1.95-2.91.77-4.24-17.69-19.7-43.66-29.67-77.42-29.67-4.78,0-9.78.2-14.86.6-39.04,3.05-65.45,28.05-79.46,45.73-.55.69-1.26.99-1.96.99-1.64,0-3.19-1.63-2.38-3.54,11.94-28.15,37.83-76.29,76.93-81.38,2.93-.38,3.3-4.47.47-5.31-11.84-3.5-24.48-5.93-36.79-5.93h0Z"/>
  </g>
  <g>
    <path d="M626.01,1099.9c-.61,0-1.2-.02-1.82-.05,0,0-.29-.02-.37-.02-11.8-.51-18.27-8.41-29.6-23.5,0,0-1.77-2.35-1.83-2.43-7.02-8.99-15.08-17.46-23.96-25.19-.06-.05-.12-.11-.18-.16-6.52-5.52-13.27-11.03-19.79-16.35-31.46-25.65-61.17-49.88-77.52-83.72-.05-.1-.09-.19-.14-.29-8.73-17.25-12.87-36.75-12.31-57.95,1.94-46.79,20.9-100.79,36.55-132.83.04-.08.07-.15.11-.23,4.3-9.14,20.6-38.98,49.62-38.98,1.2,0,2.42.05,3.63.15,2.69.21,5.81.86,9.11,1.55,4.42.92,9.42,1.96,14.77,2.25.82.05,1.64.07,2.46.07,21.65,0,35.86-16.77,45.26-27.87l1.65-1.94c.1-.12.2-.24.3-.36,3.3-4.08,5.56-5.96,6.77-6.8,2.63,1.99,6.98,7.17,10,10.77,3.79,4.52,8.09,9.65,13.06,14.29,10.9,10.3,22.21,15.97,34.52,17.29,3.34.39,7.25.97,11.39,1.58,5.81.86,11.81,1.74,17.19,2.25,18.82,1.8,33.53,9.96,44.98,24.94,35.89,46.96,30.23,147.98,21.23,200.27-2.44,14.15-14.71,27.14-26.58,39.71-.05.06-.14.14-.19.2-12.2,13.27-26.47,25.18-41.57,37.79-8.58,7.16-17.45,14.57-25.88,22.23-4.82,4.36-9.51,9.07-14.04,13.62-15.21,15.27-29.59,29.69-46.81,29.69Z"/>
    <path d="M638.8,699.57h0,0M628.62,711.19c3.27,3.82,6.91,7.88,11.13,11.84,13.81,13.04,28.4,20.22,44.6,21.98,3.07.36,6.83.92,10.8,1.5,6.02.89,12.25,1.8,18.06,2.36,13.89,1.33,24.3,7.09,32.74,18.14,13.79,18.04,22.09,49.21,24,90.14,2.08,44.5-4.16,85.14-6.12,96.53-1.54,8.94-11.97,19.99-22.08,30.7-.11.11-.21.23-.32.34-11.42,12.42-25.25,23.97-39.91,36.2-8.72,7.28-17.73,14.81-26.43,22.71h0c-5.16,4.67-9.99,9.52-14.67,14.22-14.77,14.82-25.15,24.54-34.42,24.54-.29,0-.58,0-.84-.02h-.19c-.13-.02-.26-.02-.39-.03-1.37-.06-2.05-.15-3.89-1.69-3.56-2.97-7.89-8.74-12.48-14.84l-1.66-2.21c-.12-.16-.24-.32-.37-.48-7.71-9.87-16.54-19.16-26.25-27.61-.12-.11-.24-.21-.37-.32-6.65-5.63-13.46-11.19-20.05-16.56-29.91-24.39-58.16-47.43-72.82-77.77-.09-.19-.19-.39-.29-.58-7.39-14.6-10.9-31.23-10.43-49.44,1.74-41.24,18.71-92.85,34.79-125.75.07-.15.15-.31.22-.46,3.19-6.79,15.07-28.93,33.79-28.93.72,0,1.46.03,2.2.09.03,0,.06,0,.09,0,1.55.12,4.26.69,6.88,1.23,4.77.99,10.69,2.23,17.36,2.59,1.14.07,2.3.1,3.44.1,14.08,0,27.45-4.97,39.73-14.78,5.53-4.42,10.17-9.26,14.14-13.76M628.83,667.28c-5.84,0-12.42,3.82-20.48,13.78-8.73,10.22-19.14,23.67-33.61,23.67-.48,0-.97-.01-1.46-.05-7.75-.41-15.6-3.15-23.45-3.77-1.71-.14-3.4-.21-5.06-.21-30.3,0-53.04,22.66-65.45,49.03-18.06,36.97-36.4,92.96-38.32,139.92-.65,23.48,3.9,46.13,14.18,66.45,21.78,45.06,64.47,74.22,101.76,105.8,7.92,6.9,15.2,14.5,21.66,22.77,12.26,16.26,22.88,31.69,44.46,32.63h.19c.93.06,1.84.08,2.75.08,30.92,0,50.92-28.21,72.63-47.86,22.49-20.44,48.21-38.99,68.56-61.13,13.36-14.15,27.79-29.42,31.13-48.79,10.79-62.67,23.62-235.52-81.79-245.59-8.66-.83-19.9-2.82-28.3-3.8-9.69-1.01-17.5-6.06-24.5-12.67-13.09-12.25-22.24-30.27-34.91-30.27h0Z"/>
  </g>
  <g>
    <path d="M997.93,939.58c-.45-.62-.9-1.28-1.28-1.82-1.14-1.64-2.43-3.5-3.98-5.38-7.77-10-18.45-19.21-30.1-25.96-14.74-8.47-28.51-13.04-40.67-17.08-21.38-7.1-36.84-12.24-51.13-35.52-5.9-9.84-8.21-20.37-6.88-31.29.02-.17.04-.34.05-.52.79-8.6,2.38-17.36,4.06-26.63.88-4.87,1.79-9.9,2.58-14.93,2.28-14.44,3.88-29.92.18-45.25-7.06-31-30.15-53.64-61.05-61.37,3.39-.53,6.91-.95,10.53-1.26.15-.01.29-.03.44-.04,3.4-.38,6.81-.56,10.12-.56,29.25,0,53.07,14.92,80.67,32.19,3.8,2.38,7.65,4.79,11.56,7.19,28.8,17.59,30.66,18.62,31.45,19.05h0c2.59,1.43,5.56,2.2,8.52,2.2,7.98,0,14.97-5.4,16.99-13.14,1.71-6.55-.29-11.75-5.63-22.92-3.77-7.91-8.47-16.66-13.23-24.65-12.72-21.35-25.29-36.74-37.47-45.88,30.44,4.72,74.47,29.06,89.6,56.86.13.23.26.46.39.68,12.24,20.27,21.25,43.98,29.21,76.9.06.25.13.51.2.76,5.96,20.54,17.62,41.71,32.84,59.61.07.08.14.17.22.25,2.58,2.92,4,4.52-2.59,13.27-.06.08-.11.15-.17.23-3.86,5.31-8.75,10.34-13.93,15.67-4.09,4.2-8.31,8.55-12.38,13.38-16.02,18.1-23.19,38.25-25.13,44.44-.99,2.9-1.81,5.77-2.6,8.54-2.02,7.06-3.92,13.73-7.48,16.34-3.83,2.78-10.08,5.56-13.92,6.61Z"/>
    <path d="M981.68,672.56c7,5.91,12.73,12.28,16.22,18.71.25.46.51.91.78,1.36,11.27,18.67,19.65,40.86,27.18,71.97.12.51.26,1.02.4,1.52,5.98,20.61,17.05,41.71,31.47,60.14-2.98,3.74-6.82,7.68-10.85,11.83-4.06,4.18-8.65,8.9-13.08,14.15-12.36,14.03-22.98,32.81-28.52,50.46-1.1,3.24-1.99,6.37-2.79,9.16-.32,1.12-.7,2.45-1.09,3.76-8.44-9.36-18.88-17.83-30.07-24.31-.03-.02-.07-.04-.1-.06-16.22-9.32-30.88-14.19-43.82-18.49-20.45-6.79-30.75-10.21-41.68-27.99-3.87-6.48-5.33-13.06-4.47-20.09.04-.34.08-.69.11-1.03.72-7.84,2.24-16.23,3.85-25.12.9-4.97,1.83-10.1,2.64-15.29,2.56-16.21,4.32-33.73-.06-52-2.23-9.75-5.76-18.87-10.49-27.21,7.89,4.38,16.07,9.5,24.87,15,3.78,2.37,7.69,4.81,11.69,7.27.02.02.05.03.07.05l.08.05c28.27,17.26,30.71,18.66,31.89,19.31,5.22,2.91,11.11,4.44,17.09,4.44,15.94,0,29.89-10.78,33.92-26.22,3.49-13.38-1.49-23.82-6.76-34.88-2.52-5.28-5.43-10.91-8.49-16.47M904.34,607.05c-14.39,0-28.97,1.96-42.81,4.92-17.45,5.43,5.85,9.31,12.02,11.07,11.92,3.24,23.81,7.53,34.6,13.68,27.94,15.65,56.46,78.39,54.86,78.39-.02,0-.04,0-.06-.02-2.26-1.25-24.08-14.57-30.76-18.65-33.84-20.78-62.69-41.97-101.38-41.97-3.91,0-7.91.22-12.04.67-21.87,1.85-42.3,7.65-57.43,18.4-4.02,3.15-15.02,10.36-12.48,16.23.77,1.39,3.02,1.85,5.63,1.85,3.05,0,6.6-.62,8.87-1.1,6.55-1.3,14.11-2.13,21.38-2.13,1.57,0,3.12.04,4.65.12,31.19,1.34,57.31,19.58,64.33,50.68,3.02,12.4,1.61,25.62-.43,38.54-2.22,14.13-5.47,28.46-6.78,42.66-1.85,15.13,1.5,29.54,9.28,42.49,26.79,43.72,59.45,36.52,97.99,58.67,9.51,5.51,18.65,13.24,25.22,21.78,3.85,4.57,6.59,10.83,12.15,13.4l.13.05c1.22.49,2.65.71,4.22.71,8.44,0,20.99-6.31,26.67-10.42,10.76-7.88,12.39-21.96,16.38-33.57,3.27-10.61,10.72-26.05,21.74-38.44,8.81-10.51,19.29-19.3,27.21-30.19,9.28-12.32,12.12-23.61,1.72-35.38-12.75-14.99-23.81-33.99-29.36-53.15-6.86-28.35-15.89-56.41-31.23-81.83-19.16-35.21-70.28-61.1-103.08-65.91-6.95-1.09-14.06-1.57-21.22-1.57h0Z"/>
  </g>
</svg>